<svg xmlns="http://www.w3.org/2000/svg" viewBox="0 0 57.11 19.55">
  <title>Asset 1</title>
  <g id="Layer_2" data-name="Layer 2">
    <g id="Layer_1-2" data-name="Layer 1">
      <g>
        <path d="M2.46,6.74c.1.17.89,1,1,1.13L4.58,9a2,2,0,0,1,.62,1.55,1.8,1.8,0,0,1-.84,1.34,1.22,1.22,0,0,1-.88.21H2.39a1,1,0,0,1-.76-.35c-.25-.27-.26-.36-.26-.83,0-.23,0-8.46,0-8.71a1,1,0,0,1,.46-.65,1.4,1.4,0,0,1,.86-.22,3.07,3.07,0,0,1,1.89.3,1.66,1.66,0,0,1,.75,1.43,2.28,2.28,0,0,1-.69,1.5c-.46.56-2.06,1.84-2.18,2.19ZM6.35,1.33a10.37,10.37,0,0,1,1.37,0,1.66,1.66,0,0,1,1.4,1.42,1.34,1.34,0,0,1-.34,1.08A16.32,16.32,0,0,1,7,5.61c-.2.17-1,1-1,1.11l3.25,3.34c.37.38,1.87,1.81,1.95,2H6.44c0-.1.15-.23.21-.33A2.16,2.16,0,0,0,7,10.53,2.73,2.73,0,0,0,6,8.37L4.43,6.72a4.21,4.21,0,0,1,.49-.56c.34-.35.83-.72,1.1-1a4.1,4.1,0,0,0,.48-.59,2.47,2.47,0,0,0,.44-1.69c-.09-1.07-.52-1.22-.59-1.53Zm3.58,0c1.39,0,2.26-.14,2.23,1.8l0,1.88c0,2,0,4,0,5.92L8,6.7a3.48,3.48,0,0,1,.5-.58L9,5.6c.11-.1.18-.15.28-.25a6.69,6.69,0,0,0,.8-.84,2.17,2.17,0,0,0,.51-1.69c0-.93-.56-1.16-.68-1.49ZM2.27,0a2.3,2.3,0,0,0-2,1.35A3,3,0,0,0,0,2.78V7.83c0,1.11,0,2.26,0,3.36a2.4,2.4,0,0,0,1.36,2,2.66,2.66,0,0,0,1.43.24h8.4a2.3,2.3,0,0,0,2-1.35,2.66,2.66,0,0,0,.25-1.43V2.25A2.11,2.11,0,0,0,13,1a2.65,2.65,0,0,0-.93-.76A2.75,2.75,0,0,0,10.65,0H3.93C3.39,0,2.79,0,2.27,0Z" fill="#2356a7" fill-rule="evenodd"/>
        <path d="M28.21,10.08h1.64V5.6C29.92,5.67,31,7.75,31,7.84l1.15,2.25h2.21V3.38c-.18,0-1.5,0-1.62,0l0,4.4C32.65,7.73,31.5,5.37,31.34,5l-.83-1.67H28.22v6.71Z" fill="#2356a7" fill-rule="evenodd"/>
        <path d="M45.12,8.81V7.22a4.34,4.34,0,0,1,1.25.08c.35.1.64.28.62.71a.74.74,0,0,1-.62.73,4.71,4.71,0,0,1-1.25.07Zm0-2.78V4.65a5.34,5.34,0,0,1,1.14,0,.63.63,0,0,1,.56.65c0,.71-1.21.75-1.7.69Zm-1.79,4.05c.25,0,2.11,0,2.53,0,1.37,0,3.12-.32,2.91-2.12A1.52,1.52,0,0,0,48,6.81a2,2,0,0,0-.5-.13c0-.14.06,0,.36-.24a1.64,1.64,0,0,0,0-2.75,3.82,3.82,0,0,0-2.11-.32c-.31,0-2.26,0-2.4,0v6.69Z" fill="#2356a7" fill-rule="evenodd"/>
        <path d="M17.23,7.26a5.54,5.54,0,0,1,1.22,0,.66.66,0,0,1,.61.67c0,.4-.06.56-.47.71a3.82,3.82,0,0,1-1.36.13V7.26Zm0-2.61a4.65,4.65,0,0,1,1.12,0c.37.08.54.22.53.64s-.24.52-.57.61A3.27,3.27,0,0,1,17.23,6V4.65Zm-1.79,5.44c1.5-.06,4.64.36,5.28-1.07a2.56,2.56,0,0,0,.13-1.15,1.38,1.38,0,0,0-1.19-1.18c-.12,0-.09,0-.12-.06s0,0,.1,0l.11,0a1,1,0,0,0,.21-.1,1.41,1.41,0,0,0,.71-1.07c0-.72,0-1.25-.73-1.68a3.81,3.81,0,0,0-2.08-.33c-.8,0-1.62,0-2.42,0v6.72Z" fill="#2356a7" fill-rule="evenodd"/>
        <path d="M51,4.65c.71,0,2-.07,1.72,1-.15.57-1.08.54-1.72.53V4.65Zm-1.79,5.43H51V7.44a1.36,1.36,0,0,1,1,.18,3.65,3.65,0,0,1,.75,1.57c.05.15.1.29.14.44s.1.37.14.46h1.82a22,22,0,0,0-.94-2.69c-.2-.53-.43-.44-.56-.67a1.51,1.51,0,0,0,1.19-1.25c.09-.91-.11-1.43-.7-1.76a4.21,4.21,0,0,0-2.13-.35c-.82,0-1.67,0-2.48,0v6.7Z" fill="#2356a7" fill-rule="evenodd"/>
        <path d="M35,10.08h1.8v-3c.23.11,1.79,2.71,2.09,3,.09.07.26.05.41.05.31,0,1.67,0,1.84,0a13.18,13.18,0,0,0-1.19-1.7c-.43-.56-.87-1.09-1.28-1.66-.17-.24-.16-.21,0-.45l1.64-2a10.43,10.43,0,0,0,.64-.84H38.81a4.8,4.8,0,0,0-.58.71c-.24.33-.48.66-.73,1-.1.12-.68.93-.74,1V3.38H35v6.7Z" fill="#2356a7" fill-rule="evenodd"/>
        <path d="M24.31,4.78c.07,0,.52,1.72.58,1.93a6.19,6.19,0,0,1,.19.67H23.43l.42-1.31c.08-.21.14-.42.21-.65s.08-.22.11-.32.06-.28.14-.32Zm-3.64,5.3c.44,0,1.11,0,1.58,0,.21,0,.21-.06.3-.23A6.86,6.86,0,0,0,23,8.66c.25,0,1.88,0,2.26,0,.18,0,.23,0,.3.12a9.38,9.38,0,0,1,.32.94c.14.43.2.37.46.37H28l-2.54-6.7H23.25A11.79,11.79,0,0,0,22.57,5c-.42,1-.86,2.32-1.28,3.38a12.82,12.82,0,0,0-.62,1.68Z" fill="#2356a7" fill-rule="evenodd"/>
        <polygon points="57.11 10.09 57.11 3.38 55.31 3.38 55.31 10.09 57.11 10.09 57.11 10.09" fill="#2356a7" fill-rule="evenodd"/>
        <path d="M1.48,18.67h.37V16.13h0l.86,2.54h.35l.86-2.49h0v2.49h.37v-3H3.79l-.72,2.07-.15.48h0c0-.09,0-.14-.14-.44l-.7-2.11H1.48v3ZM6.39,18a.58.58,0,0,1-.57.44c-.32,0-.63-.22-.66-.74H6.78c0-1.16-.8-1.22-1-1.22a1,1,0,0,0-1,1.15,1,1,0,0,0,1,1.11.9.9,0,0,0,.95-.7l-.38,0Zm-1.2-.6a.61.61,0,0,1,1.16-.27,1.11,1.11,0,0,1,.06.27Zm2,1.29h.37v-3H7.22v3Zm1.23-1.49c0-.18.1-.42.56-.42s.53.31.52.54a3.69,3.69,0,0,1-.66.13c-.23,0-.84.1-.84.67,0,.36.26.62.73.62a1.12,1.12,0,0,0,.8-.32.71.71,0,0,0,.07.27H10c-.12-.21-.12-.35-.12-.9v-.49c0-.38,0-.82-.84-.82s-.93.48-1,.67l.36.05Zm1.08.54a.67.67,0,0,1-.16.51.73.73,0,0,1-.52.2c-.33,0-.43-.18-.43-.34s.28-.33.51-.36a4.1,4.1,0,0,0,.6-.14v.13Zm.79,1.78a.61.61,0,0,0,.23.05c.42,0,.55-.36.71-.79l0-.05.83-2.2h-.37l-.46,1.26a2.77,2.77,0,0,0-.15.49h0a3.23,3.23,0,0,0-.15-.5l-.45-1.25h-.4l.82,2.17s0,.05,0,.08c-.1.29-.15.43-.42.43a1,1,0,0,1-.21,0l0,.34Zm2.31-2.32c0-.18.11-.42.57-.42s.53.31.52.54a3.69,3.69,0,0,1-.66.13c-.23,0-.85.1-.85.67,0,.36.27.62.74.62a1.14,1.14,0,0,0,.8-.32.56.56,0,0,0,.07.27h.38c-.11-.21-.11-.35-.11-.9v-.49c0-.38,0-.82-.84-.82s-.93.48-1,.67l.35.05Zm1.09.54a.71.71,0,0,1-.16.51.73.73,0,0,1-.52.2c-.33,0-.43-.18-.43-.34s.28-.33.51-.36a4.1,4.1,0,0,0,.6-.14v.13Zm.93,1H15V17.49a.92.92,0,0,1,.08-.44.56.56,0,0,1,.5-.27c.45,0,.45.39.45.58v1.31h.36V17.34a1.12,1.12,0,0,0-.09-.56.75.75,0,0,0-.65-.32.77.77,0,0,0-.68.36h0v-.31h-.33v2.16Zm2.32,0h.36V16.51H17v2.16Zm0-2.56h.36v-.42H17v.42Zm2.13,2.56h1.08a1.4,1.4,0,0,0,1-.3,1.6,1.6,0,0,0,.43-1.21,1.53,1.53,0,0,0-.37-1.11,1.27,1.27,0,0,0-1.07-.36h-1v3ZM19.5,16h.62a1,1,0,0,1,.72.19,1.2,1.2,0,0,1,.32.93c0,1.16-.68,1.16-1,1.16H19.5V16Zm4,1.94a.59.59,0,0,1-.57.44c-.32,0-.63-.22-.66-.74h1.62c0-1.16-.8-1.22-1-1.22a1,1,0,0,0-1,1.15,1,1,0,0,0,1,1.11.91.91,0,0,0,1-.7l-.38,0Zm-1.21-.6a.63.63,0,0,1,.62-.62.59.59,0,0,1,.54.35.78.78,0,0,1,.06.27Zm2,1.29h.37V17.49a1,1,0,0,1,.07-.44.58.58,0,0,1,.5-.27c.45,0,.45.39.45.58v1.31h.37V17.34a1,1,0,0,0-.1-.56.73.73,0,0,0-.64-.32.77.77,0,0,0-.68.36h0v-.31h-.33v2.16Zm2.25.18c0,.62.58.7.86.7a.94.94,0,0,0,.84-.4,1.79,1.79,0,0,0,.13-.77V16.51h-.34v.26h0a.76.76,0,0,0-.62-.31c-.67,0-.93.59-.93,1.12a1,1,0,0,0,.93,1.09.75.75,0,0,0,.6-.28c0,.43,0,.86-.61.86C27,19.25,27,19,27,18.9l-.36,0Zm.3-1.3c0-.52.26-.79.59-.79s.6.19.6.8a.93.93,0,0,1-.14.57.56.56,0,0,1-.92,0,1.19,1.19,0,0,1-.13-.58Zm2.38-.37c.05-.18.1-.42.56-.42s.53.31.53.54a3.86,3.86,0,0,1-.66.13c-.24,0-.85.1-.85.67,0,.36.26.62.74.62a1.12,1.12,0,0,0,.79-.32.77.77,0,0,0,.08.27h.38c-.12-.21-.12-.35-.12-.9v-.49c0-.38,0-.82-.83-.82s-.94.48-1,.67l.36.05Zm1.09.54a.68.68,0,0,1-.17.51.72.72,0,0,1-.52.2c-.33,0-.43-.18-.43-.34s.29-.33.51-.36a4.59,4.59,0,0,0,.61-.14v.13Zm.93,1h.37V17.49a1,1,0,0,1,.07-.44.57.57,0,0,1,.5-.27c.45,0,.45.39.45.58v1.31h.37V17.34a1,1,0,0,0-.1-.56.73.73,0,0,0-.65-.32.77.77,0,0,0-.67.36h0v-.31h-.33v2.16Zm3.38-1a.86.86,0,0,0,.07.37c.15.37.48.64,1.2.64s1.1-.39,1.1-.89-.63-.8-1.17-.92-.71-.21-.71-.47.43-.45.68-.45c.62,0,.71.36.73.57l.38,0c0-.58-.48-.89-1.12-.89s-1,.36-1,.82.59.74,1,.83c.6.14.9.22.9.57s-.33.51-.74.51a.91.91,0,0,1-.8-.39.67.67,0,0,1-.08-.3l-.37,0Zm4.35.27a.58.58,0,0,1-.57.44c-.32,0-.63-.22-.66-.74h1.62c0-1.16-.8-1.22-1-1.22a1,1,0,0,0-1,1.15,1,1,0,0,0,1,1.11.91.91,0,0,0,1-.7l-.38,0Zm-1.21-.6a.63.63,0,0,1,.62-.62.61.61,0,0,1,.55.35.74.74,0,0,1,.05.27Zm2.83,1-.16,0c-.21,0-.21-.13-.21-.3V16.8h.37v-.29H40.3v-.75l-.36.22v.53h-.27v.29h.27V18c0,.36,0,.66.51.66a1.45,1.45,0,0,0,.27,0l0-.33Zm1.79.33h.33V16.51h-.37v1.16a1.18,1.18,0,0,1-.07.45.57.57,0,0,1-.5.28.41.41,0,0,1-.42-.26,1.6,1.6,0,0,1,0-.43v-1.2H41v1.34a1.13,1.13,0,0,0,.1.55.74.74,0,0,0,.64.32.78.78,0,0,0,.68-.37h0v.32Zm.89,0h.37v-3h-.37v3Zm2.35,0H46V16.51h-.37v1.16a1,1,0,0,1-.08.45.54.54,0,0,1-.49.28.41.41,0,0,1-.42-.26,1.6,1.6,0,0,1,0-.43v-1.2h-.37v1.34a1.13,1.13,0,0,0,.1.55.74.74,0,0,0,.64.32.78.78,0,0,0,.68-.37h0v.32Zm.74-.64c0,.21.14.69.93.69.56,0,.86-.32.86-.68s-.3-.54-.87-.68c-.35-.09-.51-.13-.51-.32s.33-.28.47-.28a.43.43,0,0,1,.48.36l.35-.05c0-.17-.1-.61-.85-.61-.52,0-.8.29-.8.62s.43.57.75.65l.25.05c.21.06.36.12.36.3s-.12.34-.5.34a.48.48,0,0,1-.55-.45l-.37.06Zm3.45.64h.39v-1.4h1.55v1.4h.4v-3h-.4v1.22H50.28V15.69h-.39v3Zm3.25-1.49c0-.18.1-.42.56-.42s.53.31.53.54a3.86,3.86,0,0,1-.66.13c-.24,0-.85.1-.85.67,0,.36.26.62.73.62a1.12,1.12,0,0,0,.8-.32.77.77,0,0,0,.08.27h.38c-.12-.21-.12-.35-.12-.9v-.49c0-.38,0-.82-.84-.82s-.93.48-1,.67l.36.05Zm1.09.54a.68.68,0,0,1-.17.51.72.72,0,0,1-.52.2c-.33,0-.43-.18-.43-.34s.29-.33.51-.36a4.59,4.59,0,0,0,.61-.14v.13Zm1.72.62-.17,0c-.2,0-.2-.13-.2-.3V16.8H56v-.29h-.37v-.75l-.37.22v.53H55v.29h.26V18c0,.36,0,.66.51.66a1.7,1.7,0,0,0,.28,0l0-.33Zm.36.33h.37V16.51h-.37v2.16Zm0-2.56h.37v-.42h-.37v.42Z" fill="#2356a7"/>
      </g>
    </g>
  </g>
</svg>
